<svg xmlns="http://www.w3.org/2000/svg" viewBox="0 0 80 80" fill="none">
<path fill-rule="evenodd" clip-rule="evenodd" d="M32.5807 16.6674L12.5273 13.1341L13.1073 9.84744C13.1456 9.63181 13.2259 9.42582 13.3438 9.24126C13.4616 9.05669 13.6147 8.89716 13.7942 8.77179C13.9738 8.64641 14.1763 8.55765 14.3902 8.51058C14.604 8.4635 14.8251 8.45904 15.0407 8.49744L61.3707 16.6674H61.664H61.374L67.5573 17.7574C67.7733 17.7953 67.9796 17.8753 68.1646 17.993C68.3495 18.1107 68.5094 18.2637 68.6351 18.4433C68.7608 18.6229 68.8499 18.8255 68.8972 19.0396C68.9444 19.2537 68.949 19.4749 68.9107 19.6908L68.3307 22.9708L61.364 21.7441L58.6973 67.0574C58.5979 68.7536 57.8546 70.3479 56.6193 71.5145C55.3839 72.681 53.7498 73.3319 52.0507 73.3341H27.954C26.2532 73.3345 24.6165 72.6847 23.379 71.5179C22.1415 70.3511 21.3968 68.7554 21.2973 67.0574L18.634 21.6674H60.934L32.5807 16.6674ZM30.0007 30.0008L31.6673 60.0008H36.6673L35.334 30.0008H30.0007ZM45.0007 30.0008L43.334 60.0008H48.334L50.0007 30.0008H45.0007ZM36.1807 3.7641L49.314 6.07744C49.5296 6.11565 49.7356 6.19599 49.9202 6.31385C50.1048 6.43171 50.2643 6.58479 50.3897 6.76434C50.515 6.94389 50.6038 7.14638 50.6509 7.36025C50.6979 7.57412 50.7024 7.79517 50.664 8.01077L50.084 11.2908L33.6707 8.39744L34.2507 5.1141C34.2889 4.89847 34.3692 4.69249 34.4871 4.50792C34.605 4.32336 34.758 4.16383 34.9376 4.03846C35.1171 3.91308 35.3196 3.82432 35.5335 3.77725C35.7474 3.73017 35.9651 3.7257 36.1807 3.7641Z" fill="currentColor"/>
</svg>
